<?xml version="1.0" encoding="UTF-8" standalone="no"?>
<!-- Created with Inkscape (http://www.inkscape.org/) -->

<svg
   version="1.1"
   id="svg1"
   width="302.80096"
   height="206.79826"
   viewBox="0 0 302.80096 206.79826"
   xml:space="preserve"
   sodipodi:docname="logo.svg"
   inkscape:export-filename="..\..\..\..\..\..\..\..\Users\alexanasta\Desktop\uuid-extension\src\logo.svg"
   inkscape:export-xdpi="96"
   inkscape:export-ydpi="96"
   xmlns:inkscape="http://www.inkscape.org/namespaces/inkscape"
   xmlns:sodipodi="http://sodipodi.sourceforge.net/DTD/sodipodi-0.dtd"
   xmlns="http://www.w3.org/2000/svg"
   xmlns:svg="http://www.w3.org/2000/svg"><sodipodi:namedview
     id="namedview1"
     pagecolor="#ffffff"
     bordercolor="#000000"
     borderopacity="0.25"
     inkscape:showpageshadow="2"
     inkscape:pageopacity="0.0"
     inkscape:pagecheckerboard="0"
     inkscape:deskcolor="#d1d1d1" /><defs
     id="defs1" /><g
     id="g1"
     style="fill:#0066ff"
     inkscape:export-filename="..\..\..\..\..\..\..\..\Users\alexanasta\Desktop\uuid-extension\src\logo.svg"
     inkscape:export-xdpi="96"
     inkscape:export-ydpi="96"
     transform="translate(-122.68892,20.739754)"><path
       fill="#000000"
       d="M 271.06887,-20.739753 245.46683,-5.8516156 227.79587,4.305707 239.76204,11.262783 251.44992,4.44485 271.06887,-6.8256095 290.6878,4.44485 310.16761,15.854451 271.06887,38.25622 219.86481,8.8973777 V 45.352439 l 11.82702,6.817925 39.37704,22.680065 25.60202,-14.888127 13.63588,-7.791938 v 9.183337 l -39.2379,22.540923 -51.20406,-29.358847 v 13.496727 l 25.60202,14.888128 25.60204,14.609863 51.20404,-29.497991 V 31.716576 L 271.06887,60.936286 231.69183,38.534505 V 29.35117 l 39.37704,22.680062 51.20404,-29.637133 V 8.8973777 L 296.67089,-5.8516156 Z"
       id="path1"
       style="fill:#0066ff;fill-opacity:1;stroke-width:0.139142" /><path
       style="font-weight:600;font-size:62.1143px;font-family:Oxanium;-inkscape-font-specification:'Oxanium Semi-Bold';stroke:#ffffff;stroke-width:0.647023;stroke-opacity:0"
       d="m 144.59736,148.84386 v -42.85887 h 20.62195 q 10.12463,0 10.12463,10.12463 v 7.01892 q 0,7.8264 -6.21143,9.50348 l 7.45371,14.59687 -0.93171,1.61497 h -6.45989 l -7.95063,-15.65281 h -9.06869 v 15.65281 z m 7.57794,-22.54749 h 12.85766 q 2.73303,0 2.73303,-2.73303 v -8.01275 q 0,-2.67091 -2.73303,-2.67091 H 152.1753 Z m 31.36775,12.73343 v -12.98189 q 0,-9.81406 9.81406,-9.81406 h 8.07486 q 9.75194,0 9.75194,9.81406 v 9.19292 h -20.37349 v 4.41011 q 0,2.85726 2.85726,2.85726 h 16.27395 v 3.9132 l -3.29206,2.42246 h -13.29246 q -9.81406,0 -9.81406,-9.81406 z m 7.26737,-9.44138 h 13.10612 v -4.16165 q 0,-2.85726 -2.85726,-2.85726 h -7.3916 q -2.85726,0 -2.85726,2.85726 z m 29.19376,19.25544 v -32.61001 h 37.14435 q 9.75194,0 9.75194,9.81406 v 22.79595 h -7.26737 v -23.41709 q 0,-2.85726 -2.85726,-2.85726 h -9.68983 v 26.27435 h -7.26737 v -26.27435 h -12.54709 v 26.27435 z m 55.46813,-9.81406 v -12.98189 q 0,-9.81406 9.81406,-9.81406 h 8.696 q 9.75195,0 9.75195,9.81406 v 12.98189 q 0,9.81406 -9.75195,9.81406 h -8.696 q -9.81406,0 -9.81406,-9.81406 z m 7.26737,0.62114 q 0,2.85726 2.85726,2.85726 h 8.01275 q 2.85726,0 2.85726,-2.85726 v -14.22417 q 0,-2.85726 -2.85726,-2.85726 h -8.01275 q -2.85726,0 -2.85726,2.85726 z m 29.56645,-0.62114 v -33.04481 h 7.26737 v 10.24886 h 11.11846 v 6.33566 H 319.5735 v 17.08143 q 0,2.85726 2.85726,2.85726 h 8.88234 v 3.9132 l -3.29206,2.42246 h -5.90085 q -9.81406,0 -9.81406,-9.81406 z m 25.40475,0 v -12.98189 q 0,-9.81406 9.81406,-9.81406 h 8.07486 q 9.75195,0 9.75195,9.81406 v 9.19292 h -20.37349 v 4.41011 q 0,2.85726 2.85725,2.85726 h 16.27395 v 3.9132 l -3.29206,2.42246 h -13.29246 q -9.81406,0 -9.81406,-9.81406 z m 7.26738,-9.44138 h 13.10611 v -4.16165 q 0,-2.85726 -2.85725,-2.85726 h -7.39161 q -2.85725,0 -2.85725,2.85726 z m 26.3365,18.01315 10.93211,-15.28012 -10.62154,-14.84531 0.62114,-1.24229 h 6.70835 l 7.3916,10.68366 7.45371,-10.68366 h 6.70835 l 0.62114,1.24229 -10.62154,14.84531 10.93211,15.28012 -0.55903,1.24229 h -6.77045 l -7.76429,-11.11846 -7.76429,11.11846 h -6.70834 z"
       id="text1"
       aria-label="Remotex" /><path
       d="m 123.08794,181.8289 v -13.2155 h 2.12597 l 4.42432,9.38492 4.40517,-9.38492 h 2.12597 v 13.2155 h -1.60884 v -10.80223 l -4.17533,8.88694 h -1.51308 l -4.17533,-8.88694 v 10.80223 z m 18.69325,0 q -2.89209,0 -2.89209,-2.89208 0,-2.89209 2.89209,-2.89209 h 3.50498 v -1.49393 q 0,-1.3407 -1.3407,-1.3407 h -4.09872 v -0.76612 l 0.76611,-0.57459 h 3.33261 q 2.87293,0 2.87293,2.87294 v 7.08657 z m -1.35985,-2.6814 q 0,1.3407 1.3407,1.3407 h 3.52413 v -3.19853 h -3.52413 q -1.3407,0 -1.3407,1.3407 z m 9.38491,2.6814 v -9.95951 h 5.36282 q 2.87293,0 2.87293,2.87294 v 7.08657 h -1.53223 v -7.2781 q 0,-1.3407 -1.3407,-1.3407 h -3.83058 v 8.6188 z m 13.57942,0 q -2.89209,0 -2.89209,-2.89208 0,-2.89209 2.89209,-2.89209 h 3.50498 v -1.49393 q 0,-1.3407 -1.34071,-1.3407 h -4.09872 v -0.76612 l 0.76612,-0.57459 h 3.3326 q 2.87294,0 2.87294,2.87294 v 7.08657 z m -1.35986,-2.6814 q 0,1.3407 1.3407,1.3407 h 3.52414 v -3.19853 h -3.52414 q -1.3407,0 -1.3407,1.3407 z m 9.2317,-0.19153 v -4.21364 q 0,-2.87294 2.87293,-2.87294 h 5.36281 v 10.91716 q 0,2.87293 -2.87293,2.87293 h -3.83058 l -0.76612,-0.57458 v -0.76612 h 4.5967 q 1.3407,0 1.3407,-1.3407 v -1.14918 h -3.83058 q -2.87293,0 -2.87293,-2.87293 z m 1.53223,0.19153 q 0,1.3407 1.3407,1.3407 h 3.83058 v -7.2781 h -3.83058 q -1.3407,0 -1.3407,1.3407 z m 9.61477,-0.19153 v -4.21364 q 0,-2.87294 2.87294,-2.87294 h 2.48987 q 2.87294,0 2.87294,2.87294 v 2.70056 h -6.70352 v 1.70461 q 0,1.3407 1.34071,1.3407 h 4.97975 v 0.76612 l -0.76612,0.57458 h -4.21363 q -2.87294,0 -2.87294,-2.87293 z m 1.53223,-2.75802 h 5.17129 v -1.64715 q 0,-1.3407 -1.34071,-1.3407 h -2.48987 q -1.34071,0 -1.34071,1.3407 z m 14.21144,5.63095 v -9.95951 h 11.30021 q 2.87293,0 2.87293,2.87294 v 7.08657 h -1.53223 v -7.2781 q 0,-1.3407 -1.3407,-1.3407 h -3.44752 v 8.6188 h -1.53224 v -8.6188 h -4.78822 v 8.6188 z m 17.08438,-2.87293 v -7.08658 h 1.53223 v 7.27811 q 0,1.3407 1.3407,1.3407 h 3.83059 v -8.61881 h 1.53223 v 9.95951 h -5.36282 q -2.87293,0 -2.87293,-2.87293 z m 11.22361,0.15322 v -11.45343 h 1.53223 v 11.60665 q 0,1.32155 1.3407,1.39817 v 1.32155 q -2.87293,0 -2.87293,-2.87294 z m 4.97976,-0.15322 V 168.6134 h 1.53223 v 3.25599 h 3.63905 v 1.34071 h -3.63905 v 5.9374 q 0,1.3407 1.3407,1.3407 h 2.48988 v 0.76612 l -0.76611,0.57458 h -1.72377 q -2.87293,0 -2.87293,-2.87293 z m 7.50794,-8.94441 v -1.80037 h 1.68546 v 1.80037 z m 0.0766,11.81734 v -9.95951 h 1.53223 v 9.95951 z m 4.5967,3.83058 v -13.79009 h 5.36281 q 2.87294,0 2.87294,2.87294 v 4.21364 q 0,2.87293 -2.87294,2.87293 h -3.83058 v 3.83058 z m 1.53223,-5.17128 h 3.83058 q 1.3407,0 1.3407,-1.3407 v -4.5967 q 0,-1.3407 -1.3407,-1.3407 h -3.83058 z m 9.53816,-1.37901 v -11.45343 h 1.53223 v 11.60665 q 0,1.32155 1.3407,1.39817 v 1.32155 q -2.87293,0 -2.87293,-2.87294 z m 4.90314,-0.15322 v -4.21364 q 0,-2.87294 2.87293,-2.87294 h 2.48988 q 2.87294,0 2.87294,2.87294 v 2.70056 h -6.70352 v 1.70461 q 0,1.3407 1.3407,1.3407 h 4.97976 v 0.76612 l -0.76612,0.57458 h -4.21364 q -2.87293,0 -2.87293,-2.87293 z m 1.53223,-2.75802 h 5.17128 v -1.64715 q 0,-1.3407 -1.3407,-1.3407 h -2.48988 q -1.3407,0 -1.3407,1.3407 z m 13.2538,-7.2398 0.24899,-0.34475 h 1.28324 l 2.75802,11.75988 h 0.24899 l 2.89209,-10.30426 h 1.60884 l 2.87294,10.30426 h 0.26814 L 289.316,168.6134 h 1.28325 l 0.24899,0.34475 -3.04532,12.87075 h -2.66225 l -2.52818,-9.15508 -2.52818,9.15508 h -2.66226 z m 18.04202,9.99782 v -4.21364 q 0,-2.87294 2.87293,-2.87294 h 2.68141 q 2.87293,0 2.87293,2.87294 v 4.21364 q 0,2.87293 -2.87293,2.87293 h -2.68141 q -2.87293,0 -2.87293,-2.87293 z m 1.53223,0.19153 q 0,1.3407 1.3407,1.3407 h 2.68141 q 1.3407,0 1.3407,-1.3407 v -4.5967 q 0,-1.3407 -1.3407,-1.3407 h -2.68141 q -1.3407,0 -1.3407,1.3407 z m 9.72967,2.6814 v -8.81033 q 0.67035,-1.14918 2.48987,-1.14918 h 1.91529 l 0.76612,0.57459 v 0.76612 h -2.47072 q -0.80443,0 -1.16833,0.44051 v 8.17829 z m 7.04826,-2.87293 v -4.21364 q 0,-2.87294 2.87294,-2.87294 h 3.83058 v -4.21363 h 1.53223 v 14.17314 h -5.36281 q -2.87294,0 -2.87294,-2.87293 z m 1.53224,0.19153 q 0,1.3407 1.3407,1.3407 h 3.83058 v -7.2781 h -3.83058 q -1.3407,0 -1.3407,1.3407 z m 9.95952,2.6814 v -13.2155 h 6.263 q 2.93039,0 2.93039,2.9304 v 2.48987 q 0,2.9304 -2.93039,2.9304 h -4.65416 v 4.86483 z m 1.60884,-6.32045 h 4.67331 q 1.3024,0 1.3024,-1.3024 v -2.83463 q 0,-1.3024 -1.3024,-1.3024 h -4.67331 z m 10.18933,6.32045 v -8.81033 q 0.67035,-1.14918 2.48988,-1.14918 h 1.91529 l 0.76612,0.57459 v 0.76612 h -2.47073 q -0.80442,0 -1.16833,0.44051 v 8.17829 z m 7.04825,-2.87293 v -4.21364 q 0,-2.87294 2.87294,-2.87294 h 2.48988 q 2.87293,0 2.87293,2.87294 v 2.70056 h -6.70351 v 1.70461 q 0,1.3407 1.3407,1.3407 h 4.97975 v 0.76612 l -0.76611,0.57458 h -4.21364 q -2.87294,0 -2.87294,-2.87293 z m 1.53224,-2.75802 h 5.17128 v -1.64715 q 0,-1.3407 -1.3407,-1.3407 h -2.48988 q -1.3407,0 -1.3407,1.3407 z m 9.23169,5.05637 v -0.76612 h 4.42432 q 1.32155,0 1.32155,-1.3407 0,-1.35986 -1.05341,-1.53223 l -2.2792,-0.38306 q -2.41326,-0.40221 -2.41326,-2.62395 0,-2.73887 2.87293,-2.73887 h 3.19854 l 0.76611,0.57459 v 0.76612 h -3.9838 q -1.3407,0 -1.3407,1.3407 0,1.20663 1.13002,1.39816 l 2.27919,0.38306 q 2.37496,0.38306 2.37496,2.73887 0,2.75801 -2.91124,2.75801 h -3.6199 z m 9.57644,0 v -0.76612 h 4.42432 q 1.32156,0 1.32156,-1.3407 0,-1.35986 -1.05341,-1.53223 l -2.2792,-0.38306 q -2.41327,-0.40221 -2.41327,-2.62395 0,-2.73887 2.87294,-2.73887 h 3.19853 l 0.76612,0.57459 v 0.76612 h -3.9838 q -1.34071,0 -1.34071,1.3407 0,1.20663 1.13003,1.39816 l 2.27919,0.38306 q 2.37496,0.38306 2.37496,2.73887 0,2.75801 -2.91124,2.75801 h -3.6199 z m 14.17315,0 v -0.76612 h 4.42432 q 1.32155,0 1.32155,-1.3407 0,-1.35986 -1.05341,-1.53223 l -2.2792,-0.38306 q -2.41326,-0.40221 -2.41326,-2.62395 0,-2.73887 2.87293,-2.73887 h 3.19854 l 0.76611,0.57459 v 0.76612 h -3.9838 q -1.3407,0 -1.3407,1.3407 0,1.20663 1.13002,1.39816 l 2.27919,0.38306 q 2.37496,0.38306 2.37496,2.73887 0,2.75801 -2.91124,2.75801 h -3.6199 z m 9.88289,-11.24276 v -1.80037 h 1.68545 v 1.80037 z m 0.0766,11.81734 v -9.95951 h 1.53223 v 9.95951 z m 4.5201,-2.87293 V 168.6134 h 1.53223 v 3.25599 h 3.63905 v 1.34071 h -3.63905 v 5.9374 q 0,1.3407 1.3407,1.3407 h 2.48988 v 0.76612 l -0.76611,0.57458 h -1.72377 q -2.87293,0 -2.87293,-2.87293 z m 7.43132,0 v -4.21364 q 0,-2.87294 2.87294,-2.87294 h 2.48987 q 2.87294,0 2.87294,2.87294 v 2.70056 h -6.70352 v 1.70461 q 0,1.3407 1.34071,1.3407 h 4.97975 v 0.76612 l -0.76611,0.57458 h -4.21364 q -2.87294,0 -2.87294,-2.87293 z m 1.53223,-2.75802 h 5.17129 v -1.64715 q 0,-1.3407 -1.34071,-1.3407 h -2.48987 q -1.34071,0 -1.34071,1.3407 z m 9.23168,5.05637 v -0.76612 h 4.42432 q 1.32155,0 1.32155,-1.3407 0,-1.35986 -1.05341,-1.53223 l -2.27919,-0.38306 q -2.41327,-0.40221 -2.41327,-2.62395 0,-2.73887 2.87294,-2.73887 h 3.19853 l 0.76612,0.57459 v 0.76612 h -3.98381 q -1.3407,0 -1.3407,1.3407 0,1.20663 1.13002,1.39816 l 2.2792,0.38306 q 2.37496,0.38306 2.37496,2.73887 0,2.75801 -2.91124,2.75801 h -3.6199 z m 9.99781,0.57458 v -2.06851 h 1.85783 v 2.06851 z m 4.97977,0 v -2.06851 h 1.85783 v 2.06851 z"
       id="text2"
       style="font-size:19.1529px;font-family:Oxanium;-inkscape-font-specification:Oxanium;stroke:#ffffff;stroke-width:0.798039;stroke-opacity:0"
       aria-label="Manage multiple WordPress sites.." /></g></svg>
